<?xml version="1.0" encoding="UTF-8"?><svg id="a" xmlns="http://www.w3.org/2000/svg" viewBox="0 0 407.55 274.63"><defs><style>.b{fill:#f9b110;}.c{fill:#fa744e;}.d{fill:#f04e98;}.e{fill:#fff;}.f{fill:#0d90e0;}.g{fill:#42d4c6;}</style></defs><g><polygon class="g" points="157.61 68.55 89.06 68.55 111.45 0 180.01 0 157.61 68.55"/><polygon class="d" points="294.72 68.55 226.17 68.55 248.56 0 317.11 0 294.72 68.55"/><polygon class="f" points="340.88 137.11 272.33 137.11 294.72 68.55 363.28 68.55 340.88 137.11"/><polygon class="c" points="203.77 137.11 135.22 137.11 157.61 68.55 226.17 68.55 203.77 137.11"/><polygon class="f" points="112.83 205.66 44.27 205.66 66.67 137.11 135.22 137.11 112.83 205.66"/><polygon class="g" points="249.94 205.66 181.38 205.66 203.77 137.11 272.33 137.11 249.94 205.66"/><polygon class="c" points="296.1 274.22 227.54 274.22 249.94 205.66 318.49 205.66 296.1 274.22"/><polygon class="b" points="158.99 274.22 90.44 274.22 112.83 205.66 181.38 205.66 158.99 274.22"/></g></svg>
